<svg width="214" height="38" xmlns="http://www.w3.org/2000/svg" xmlns:xlink="http://www.w3.org/1999/xlink"><defs><circle id="a" cx="16.34" cy="16.34" r="16.34"/></defs><g fill="none" fill-rule="evenodd"><g transform="translate(1)"><circle fill="#F70664" fill-rule="nonzero" cx="19" cy="19" r="19"/><circle fill="#FFF" fill-rule="nonzero" cx="19" cy="19" r="16.34"/><g transform="translate(2.66 2.66)"><mask id="b" fill="#fff"><use xlink:href="#a"/></mask><path fill="#293B65" fill-rule="nonzero" mask="url(#b)" d="M4.18 16.72h6.84v16.34l-6.84-4.18z"/></g><circle fill="#293B65" fill-rule="nonzero" cx="19" cy="19.38" r="12.16"/></g><path d="M56.133 25.651v-3.315h2.593c.996 0 1.863-.164 2.601-.492.739-.328 1.305-.801 1.699-1.42.393-.618.59-1.342.59-2.174 0-.842-.197-1.57-.59-2.182-.394-.613-.96-1.083-1.699-1.412-.738-.328-1.605-.492-2.6-.492H54v11.487h2.133zm2.495-5.12h-2.495V15.97h2.495c.93 0 1.635.197 2.117.591.481.394.722.957.722 1.69s-.241 1.297-.722 1.69c-.482.394-1.187.591-2.117.591zm19.114 5.284c1.17 0 2.226-.254 3.167-.763a5.67 5.67 0 002.215-2.108c.536-.898.804-1.91.804-3.036 0-1.127-.268-2.14-.804-3.036a5.67 5.67 0 00-2.215-2.109c-.941-.509-1.997-.763-3.167-.763-1.171 0-2.227.254-3.168.763a5.651 5.651 0 00-2.215 2.117c-.536.903-.804 1.912-.804 3.028s.268 2.125.804 3.027a5.651 5.651 0 002.215 2.117c.941.509 1.997.763 3.168.763zm0-1.87c-.766 0-1.456-.173-2.068-.517a3.739 3.739 0 01-1.444-1.444c-.35-.619-.525-1.31-.525-2.076s.175-1.458.525-2.076c.35-.618.831-1.1 1.444-1.444.612-.345 1.302-.517 2.068-.517.765 0 1.455.172 2.067.517a3.739 3.739 0 011.444 1.444c.35.618.525 1.31.525 2.076s-.175 1.457-.525 2.076c-.35.618-.831 1.1-1.444 1.444-.612.344-1.302.517-2.067.517zm19.934 1.706c1.225 0 2.314-.238 3.266-.714.951-.475 1.69-1.148 2.215-2.018.525-.87.788-1.874.788-3.011 0-1.138-.263-2.142-.788-3.012-.525-.87-1.264-1.542-2.215-2.018-.952-.476-2.04-.714-3.266-.714h-5.022v11.487h5.022zm-.099-1.805h-2.79V15.97h2.79c.843 0 1.584.162 2.224.484.64.323 1.132.783 1.477 1.379.345.596.517 1.288.517 2.076 0 .787-.172 1.48-.517 2.076a3.463 3.463 0 01-1.477 1.378c-.64.323-1.381.484-2.224.484zm20.41 1.97c.942 0 1.803-.165 2.585-.493a5.24 5.24 0 001.978-1.428l-1.379-1.312c-.831.908-1.854 1.362-3.068 1.362-.788 0-1.494-.173-2.117-.517a3.724 3.724 0 01-1.46-1.436c-.351-.613-.526-1.308-.526-2.084 0-.777.175-1.472.525-2.084a3.724 3.724 0 011.46-1.436c.624-.345 1.33-.517 2.118-.517 1.214 0 2.237.448 3.068 1.345l1.379-1.296a5.255 5.255 0 00-1.97-1.428c-.776-.328-1.635-.492-2.576-.492-1.16 0-2.207.254-3.142.763a5.684 5.684 0 00-2.208 2.109c-.536.897-.804 1.909-.804 3.036s.266 2.138.796 3.036c.53.897 1.264 1.6 2.2 2.108.935.509 1.982.763 3.142.763zm15.209-.165v-4.923h5.94v4.923h2.134V14.164h-2.134v4.743h-5.94v-4.743h-2.133v11.487h2.133zm18.195 0l1.132-2.658h5.744l1.148 2.658h2.232l-5.185-11.487h-2.101l-5.17 11.487h2.2zm6.17-4.332h-4.316l2.15-5.022 2.166 5.022zm15.57 4.496c1.006 0 1.86-.153 2.56-.46.7-.305 1.222-.716 1.566-1.23a3.026 3.026 0 00.517-1.723c0-.744-.194-1.335-.582-1.772a3.597 3.597 0 00-1.403-.977c-.547-.213-1.247-.418-2.1-.615a19.939 19.939 0 01-1.478-.41 2.55 2.55 0 01-.894-.493 1.024 1.024 0 01-.353-.804c0-.47.205-.848.615-1.132.41-.284 1.037-.427 1.88-.427.514 0 1.044.077 1.591.23a6.638 6.638 0 011.576.673l.672-1.658c-.492-.328-1.077-.58-1.755-.754a8.242 8.242 0 00-2.068-.263c-1.007 0-1.857.153-2.552.46-.695.306-1.214.719-1.559 1.238a3.065 3.065 0 00-.517 1.732c0 .755.194 1.354.583 1.797.388.443.853.768 1.395.976.541.208 1.25.416 2.125.624.623.153 1.116.29 1.477.41.36.12.659.287.894.5.235.214.353.485.353.813 0 .448-.21.81-.632 1.083-.421.273-1.058.41-1.912.41-.689 0-1.375-.118-2.06-.353-.683-.235-1.26-.539-1.73-.91l-.739 1.657c.481.416 1.135.75 1.961 1a8.764 8.764 0 002.568.378zm21.837-.164v-1.788h-6.482v-3.168h5.547V18.94h-5.547v-2.986h6.252v-1.789h-8.385v11.487h8.615zm10.975 0v-3.347l2.73-.001c.13-.002.232-.008.305-.016l2.347 3.364h2.298l-2.642-3.774c.787-.306 1.392-.771 1.813-1.395.421-.624.632-1.367.632-2.232 0-.842-.197-1.57-.591-2.182-.394-.613-.96-1.083-1.699-1.412-.738-.328-1.605-.492-2.6-.492h-4.727v11.487h2.134zm2.494-5.103h-2.494v-4.579h2.494c.93 0 1.635.197 2.117.591.481.394.722.957.722 1.69s-.24 1.3-.722 1.699-1.187.599-2.117.599z" fill="#FFF" fill-rule="nonzero"/></g></svg>